<svg id="组_7" data-name="组 7" xmlns="http://www.w3.org/2000/svg" xmlns:xlink="http://www.w3.org/1999/xlink" width="1226.534" height="360.467" viewBox="0 0 1226.534 360.467">
  <defs>
    <clipPath id="clip-path">
      <rect id="矩形_1" data-name="矩形 1" width="1226.534" height="360.467" fill="none"/>
    </clipPath>
  </defs>
  <g id="组_6" data-name="组 6" clip-path="url(#clip-path)">
    <path id="路径_19" data-name="路径 19" d="M352.043,130.871c-3.751-3.492-4.535-6.456-5.661-9.2-26.655-64.8-74.713-102.417-144.25-111.692a155.722,155.722,0,0,0-58.056,3.5c-3.337.821-6.635,2.084-10.18,1.321a4.532,4.532,0,0,1-3.58-2.725c-.778-2.024.063-3.717,1.562-5.022,2.707-2.364,6.088-3.153,9.518-3.732,74.989-12.609,136.1,10.631,182.93,70.631,11.911,15.26,20.1,32.49,26.191,50.771.467,1.4.721,2.873,1.522,6.148"/>
    <path id="路径_20" data-name="路径 20" d="M142.207,355.165c4.358-1.565,7.773-.946,11.176-.55,26.815,3.1,53.325,2.465,79.162-6.4,57.29-19.669,94.662-58.68,113.029-116.092.858-2.676,1.066-5.6,3.206-7.713,1.4-1.382,3.064-2.289,5.088-1.622a4.428,4.428,0,0,1,3.315,5.039,37.562,37.562,0,0,1-1.693,7.325c-14.921,43.586-41.833,77.461-81.787,100.889-33.4,19.584-69.528,26.7-107.821,23.805a85.111,85.111,0,0,1-23.675-4.681"/>
    <path id="路径_21" data-name="路径 21" d="M49.042,64.285c-7.049,9.525-14.391,18.76-20.134,29.089C10.293,126.838,3.156,162.46,7.973,200.494c4.908,38.737,21.368,71.88,48.1,100.148.864.912,1.759,1.8,2.568,2.759,1.844,2.18,2.334,4.515.188,6.735-2.5,2.588-5.136,2.018-7.433-.276a129.855,129.855,0,0,1-9.716-10.272C10.8,261.088-3.441,217.2.7,168.019c3.09-36.632,17.007-69.278,40.054-97.983a60.691,60.691,0,0,1,5.293-5.37,2.162,2.162,0,0,1,2.993-.382"/>
    <path id="路径_22" data-name="路径 22" d="M182.073,342.561c10.589-1.71,21.106-3.064,31.526-5.222C275.611,324.5,325.3,272.456,334.99,210.262c1.069-6.852,1.511-13.707,2.109-20.579.271-3.092,1.035-6.832,5.219-6.527,4.133.3,4.358,3.976,4.307,7.183A129.969,129.969,0,0,1,335.654,239.7c-25.76,60.174-71.019,95.038-136.321,103.426-5.726.735-11.472,3.075-17.261-.562"/>
    <path id="路径_23" data-name="路径 23" d="M318.7,97.459c-8.348-10.061-16.357-20.41-25.943-29.486-29.81-28.217-65.067-42.841-106.23-43.708a160.466,160.466,0,0,0-73.793,16.229,45.37,45.37,0,0,1-4.215,2.092c-2.819,1-5.8,1.411-7.282-1.932-1.451-3.266.613-5.609,3.3-6.815,6.872-3.075,13.732-6.345,20.9-8.571C184.216,7.01,237.555,17.014,285.325,56.122A127.77,127.77,0,0,1,318.7,97.459"/>
    <path id="路径_24" data-name="路径 24" d="M40.842,100.779c.51,3.97-1.519,6.156-2.642,8.585C10.983,168.344,17.1,224.18,55.09,276.347c9.771,13.416,22.369,24.669,36.491,33.858a71.353,71.353,0,0,1,6.176,4.324c1.85,1.508,2.839,3.56,1.294,5.783a4.605,4.605,0,0,1-5.894,1.57,30.591,30.591,0,0,1-5.692-3.295c-37.2-26.316-60.225-61.873-68.129-106.65a160.776,160.776,0,0,1,12.254-96.61c2.3-5.042,4.788-9.95,9.252-14.548"/>
    <path id="路径_25" data-name="路径 25" d="M39.719,141.922c-3.412,15.485-3.62,31.079-3.149,46.7,1.006,33.467,14.166,62.084,35.87,86.957,15.346,17.592,34.362,30.187,56.258,38.452,3.529,1.331,9.582,1.918,7.268,7.5-2.263,5.461-7.354,1.816-10.663.373C75.6,300.241,44.909,262.985,34.38,209.743c-3.623-18.316-3.024-36.822.274-55.2.8-4.461,2.049-8.824,5.065-12.624"/>
    <path id="路径_26" data-name="路径 26" d="M213.018,324.083c7.325-2.691,14.8-5.039,21.95-8.126,48.462-20.906,77.221-57.486,86.624-109.263a129.812,129.812,0,0,0,.1-45.817,36.578,36.578,0,0,1-.5-7.485,3.956,3.956,0,0,1,3.56-3.808A3.615,3.615,0,0,1,329,152.43l.006.03a61.416,61.416,0,0,1,2.24,11.036c3.007,38.623-5.658,74.04-29.121,105.444-19.222,25.732-44.361,43.1-74.608,53.427a32.675,32.675,0,0,1-4.53,1.292c-3.318.616-6.661,1.094-9.993,1.63.006-.4.014-.8.02-1.2"/>
    <path id="路径_27" data-name="路径 27" d="M278.262,72.063c-1.761.733-2.713-.761-3.845-1.667-54.485-43.6-128.622-43.631-182.7-.046-.978.787-1.875,1.676-2.85,2.468-2.371,1.932-4.954,3.249-7.416.393-2.508-2.91-.733-5.23,1.636-7.157a144.536,144.536,0,0,1,20.134-13.923c24.589-13.872,50.945-21.451,79.3-20.428a151.6,151.6,0,0,1,88.937,32.049,66.681,66.681,0,0,1,6.134,5.846c.618.618,1.268,1.357.675,2.465"/>
    <path id="路径_28" data-name="路径 28" d="M242.757,300.36c11.019-8.459,21.947-16.189,31.4-25.963,23.54-24.35,35.819-53.14,36.372-87.091.308-18.743-1.836-36.882-9.525-54.146-.507-1.14-.8-2.374-1.217-3.557-.8-2.28-.781-4.566,1.5-5.789,3.033-1.622,4.646.613,5.846,2.944a52.355,52.355,0,0,1,3.053,6.866c11.5,33.413,10.848,66.544-3.09,99.088-11.56,26.992-29.893,48.357-55.143,63.628-2.143,1.3-4.4,2.431-6.652,3.517a10.022,10.022,0,0,1-2.542.5"/>
    <path id="路径_29" data-name="路径 29" d="M251.565,68.258c-11.512-4.523-22.317-10.577-34.3-13.268-54.573-12.241-100.712,1.459-136.942,45.016a43.723,43.723,0,0,1-3.112,3.537c-2,1.93-4.082,4.706-7.074,1.793-2.759-2.688-.684-5.2,1.112-7.431,16.992-21.02,38.013-36.556,63.75-45.09,33.59-11.139,66.826-9.391,99.4,4.338,6.33,2.668,12.538,5.661,17.161,11.1"/>
    <path id="路径_30" data-name="路径 30" d="M47.189,174.571c1.522,11.122,2.525,22.343,4.651,33.352,9.9,51.281,53.955,93.111,105.7,100.841a97.891,97.891,0,0,1,10.124,2.135,3.159,3.159,0,0,1,2.488,3.5,4,4,0,0,1-2.839,3.4c-2.143.872-4.307.408-6.493.071-57.445-8.791-104.408-55.9-113.564-113.42a105.353,105.353,0,0,1-.068-29.879"/>
    <path id="路径_31" data-name="路径 31" d="M221.8,67.443c-8.417-1.5-15.916-3.135-23.5-4.13-33.447-4.389-63.643,3.529-90.153,24.515a114.6,114.6,0,0,0-33.871,43.333,18.325,18.325,0,0,1-2.411,4c-1.243,1.533-2.921,2.585-4.928,1.5-2.075-1.12-2.035-3.118-1.174-4.9,2.306-4.808,4.4-9.782,7.271-14.245,20.847-32.418,50.13-51.96,88.491-58.059,19.094-3.035,37.54-1.149,55.8,4.532a11.478,11.478,0,0,1,2.582,1.117c.482.294.767.909,1.9,2.34"/>
    <path id="路径_32" data-name="路径 32" d="M62.056,205.219c4.577,13.692,8.961,26.65,16.383,38.267,19.162,29.993,46.365,47.8,81.4,54.1,10.332,1.858,20.627,1.784,30.993,1.3.938-.043,1.867-.3,2.8-.356,2.394-.151,4.589.356,4.914,3.138.336,2.867-1.981,3.677-4.158,4.173A33.45,33.45,0,0,1,186.969,307c-42.545-.174-77.572-16.118-103.948-49.845a117.107,117.107,0,0,1-20.515-41c-.918-3.275-2.309-6.527-.45-10.936"/>
    <path id="路径_33" data-name="路径 33" d="M265.556,266.787c3.221-3.691,6.638-7.228,9.628-11.093,30.865-39.809,32.262-96.141,5.042-137.731-1.035-1.579-2.158-3.1-3.147-4.7-1.419-2.312-4.181-4.982-.681-7.231,3.152-2.027,5.273,1.032,6.875,3.221a90.634,90.634,0,0,1,10.948,18.64c18.484,44.751,14.223,87.049-14.086,126.627a60.56,60.56,0,0,1-6.154,7.114c-2.175,2.206-4.019,4.842-8.425,5.153"/>
    <path id="路径_34" data-name="路径 34" d="M196.182,73.234c-7.342,0-12.883-.06-18.424.009-47.664.584-88.918,33.578-101.055,82.252-.678,2.728-.752,5.612-2.426,8.029a3.026,3.026,0,0,1-3.187,1.454,3.108,3.108,0,0,1-2.388-2.611c-.573-2.565.365-4.954,1-7.374,10.058-37.962,34.16-63.489,70.107-78.25a103.718,103.718,0,0,1,46.171-7.271c3.033.182,6.176-.037,10.2,3.762"/>
    <path id="路径_35" data-name="路径 35" d="M79.75,226.175c7.684,13.185,16.212,25.475,27.687,35.514,22.064,19.3,47.659,28.2,77.047,26.749a129.069,129.069,0,0,0,27.787-4.654,45.769,45.769,0,0,1,4.555-1.177c1.613-.265,3.269.026,4.036,1.642,1.046,2.2-.336,3.606-2.118,4.486-5.692,2.827-11.9,4.113-18.082,5.068-38.093,5.88-70.771-5.786-98.433-31.709-10.486-9.825-18.735-21.653-22.48-35.919"/>
    <path id="路径_36" data-name="路径 36" d="M269.53,246.776c3.657-7.727,7.966-14.533,11.233-21.884,16.694-37.566,8.22-86.008-20.513-115.594-3.061-3.155-6.29-6.148-9.369-9.286-1.371-1.4-2.448-3.078-.761-4.919,1.579-1.722,3.454-1.166,5.1-.071a26.444,26.444,0,0,1,3.611,3c38.868,37.394,47.042,97.88,16.391,143.809-1.277,1.915-2.026,4.546-5.692,4.945"/>
    <path id="路径_37" data-name="路径 37" d="M430.85,309.3v-170.8h66.369c36.356,0,61.245,22.205,61.245,56.854,0,21.715-11.469,39.528-30.5,48.068l34.4,65.881H521.619l-29.036-57.341H467.45V309.3Zm36.6-87.841h25.133c17.324,0,28.549-10.248,28.549-26.108,0-16.105-11.225-26.353-28.549-26.353H467.45Z"/>
    <path id="路径_38" data-name="路径 38" d="M669.727,183.879h34.4V309.3h-30.5L670.7,294.413c-8.052,9.516-18.788,16.348-35.869,16.348-25.131,0-48.556-12.689-48.556-56.364V183.879h34.4V249.76c0,20.009,6.588,31.232,23.181,31.232,16.1,0,25.864-11.712,25.864-33.427Z"/>
    <path id="路径_39" data-name="路径 39" d="M730.966,267.572h32.7c.976,10.98,10,18.544,26.352,18.544,13.664,0,21.961-4.636,21.961-13.42,0-10.248-8.541-11.224-27.572-13.664-28.793-3.416-51-10-51-35.868,0-24.889,21.229-40.993,52.949-40.993,32.941,0,55.632,14.884,57.1,40.5h-32.7c-1.22-10-10-16.1-23.424-16.1-12.687,0-20.984,4.88-20.984,12.933,0,9.515,10.492,10.736,27.816,12.687,27.328,2.929,51.241,9.517,51.241,37.821,0,24.888-22.692,40.748-55.633,40.748-34.4,0-57.584-16.347-58.8-43.188"/>
    <path id="路径_40" data-name="路径 40" d="M926.654,309.3q-35.868,0-35.868-35.868V212.916H861.261V183.879h29.525V148.743h34.4v35.136h40.992v29.037H925.19v54.9c0,8.784,3.417,12.444,12.444,12.444h29.038V309.3Z"/>
    <path id="路径_41" data-name="路径 41" d="M1087.939,280.261V309.3H985.947V280.261h34.4V167.532h-34.4V138.494H1055V280.261Z"/>
    <path id="路径_42" data-name="路径 42" d="M1100.872,246.832c0-39.041,25.133-64.417,63.442-64.417,36.843,0,61.976,23.425,62.22,60.268a73.588,73.588,0,0,1-.976,11.957h-88.817V256.1c.733,17.812,11.955,28.548,28.549,28.548,13.42,0,22.692-6.1,25.619-17.812h33.918c-3.66,24.4-25.133,43.921-58.318,43.921-40.992,0-65.637-25.132-65.637-63.929m91.258-14.884c-2.439-15.373-12.688-23.913-27.572-23.913-14.4,0-25.133,9.028-27.084,23.913Z"/>
    <path id="路径_43" data-name="路径 43" d="M431.738,105.61v-46.9h16.281c10.251,0,15.812,4.758,15.812,12.395,0,5.5-3.082,8.912-7.973,10.251,5.562.939,9.85,4.222,9.85,10.855,0,8.308-5.9,13.4-17.086,13.4Zm7.7-27h8.643c5.293,0,8.107-2.546,8.107-6.766s-2.814-6.768-8.107-6.768h-8.643Zm0,20.637h8.978c6.3,0,9.447-2.68,9.447-7.035,0-4.691-3.417-7.236-9.447-7.236h-8.978Z"/>
    <path id="路径_44" data-name="路径 44" d="M508.251,99.245v6.365h-27V99.245h9.916V65.074h-9.916V58.709H498.4V99.245Z"/>
    <path id="路径_45" data-name="路径 45" d="M521.383,88.458c0-10.452,6.968-17.555,17.286-17.555,10.251,0,17.286,7.1,17.286,17.555,0,10.52-7.035,17.555-17.286,17.555-10.318,0-17.286-7.035-17.286-17.555m27.135,0c0-6.633-3.953-11.391-9.849-11.391-5.963,0-9.916,4.758-9.916,11.391s3.953,11.391,9.916,11.391c5.9,0,9.849-4.758,9.849-11.391"/>
    <path id="路径_46" data-name="路径 46" d="M571.833,88.525c0-10.587,6.767-17.622,17.085-17.622,8.777,0,14.271,4.892,15.611,12.664h-7.571a7.881,7.881,0,0,0-8.174-6.5c-5.763,0-9.581,4.758-9.581,11.458s3.818,11.323,9.581,11.323a7.873,7.873,0,0,0,8.108-6.5h7.637c-1.273,7.773-7.1,12.664-15.812,12.664-10.319,0-16.884-6.767-16.884-17.487"/>
    <path id="路径_47" data-name="路径 47" d="M621.881,105.61v-46.9h7.236V87.922L645.2,71.305h8.643l-13.534,14,14.137,20.3H645.8L635.215,90.467l-6.1,6.366v8.777Z"/>
    <path id="路径_48" data-name="路径 48" d="M667.977,90.2l7.705.066c.47,5.629,4.758,9.247,10.988,9.247,5.562,0,9.18-2.546,9.18-6.9s-3.216-5.963-11.859-7.5c-9.649-1.676-14.942-5.294-14.942-13.065,0-8.175,6.633-13.736,16.349-13.736,10.251,0,17.018,5.7,17.42,14.472h-7.705c-.536-4.958-4.288-7.973-9.715-7.973-5.293,0-8.644,2.413-8.644,6.633,0,4.288,3.284,5.7,11.927,7.237,9.514,1.608,14.874,5.561,14.874,13.266,0,8.308-6.968,14.071-16.951,14.071-11.19,0-18.426-6.232-18.627-15.813"/>
    <path id="路径_49" data-name="路径 49" d="M727.137,90.133v.335c.2,5.829,3.82,9.648,9.448,9.648,4.287,0,7.571-2.211,8.509-6.03h7.237c-1.206,6.767-6.9,11.927-15.344,11.927-10.72,0-17.42-6.969-17.42-17.488,0-10.587,6.7-17.622,16.683-17.622,9.917,0,16.482,6.3,16.682,16.349a24.04,24.04,0,0,1-.2,2.881Zm.269-5.427h18.023c-.6-5.092-4.086-7.974-9.112-7.974a8.763,8.763,0,0,0-8.911,7.974"/>
    <path id="路径_50" data-name="路径 50" d="M768.81,88.525c0-10.587,6.768-17.622,17.086-17.622,8.777,0,14.271,4.892,15.611,12.664h-7.571a7.882,7.882,0,0,0-8.175-6.5c-5.762,0-9.58,4.758-9.58,11.458s3.818,11.323,9.58,11.323a7.872,7.872,0,0,0,8.108-6.5h7.638c-1.273,7.773-7.1,12.664-15.812,12.664-10.319,0-16.885-6.767-16.885-17.487"/>
  </g>
</svg>
